<svg xmlns="http://www.w3.org/2000/svg" xmlns:xlink="http://www.w3.org/1999/xlink" width="50" zoomAndPan="magnify" viewBox="0 0 37.5 37.499999" height="50" preserveAspectRatio="xMidYMid meet" version="1.0"><defs><clipPath id="27ceb76967"><path d="M 18.503906 0.964844 L 30.171875 0.964844 L 30.171875 12.636719 L 18.503906 12.636719 Z M 18.503906 0.964844 " clip-rule="nonzero"/></clipPath><clipPath id="0c5d4237a6"><path d="M 18.503906 24.371094 L 30.171875 24.371094 L 30.171875 36.039062 L 18.503906 36.039062 Z M 18.503906 24.371094 " clip-rule="nonzero"/></clipPath><clipPath id="ef057cb5c4"><path d="M 6.835938 12.636719 L 18.503906 12.636719 L 18.503906 24.304688 L 6.835938 24.304688 Z M 6.835938 12.636719 " clip-rule="nonzero"/></clipPath></defs><g clip-path="url(#27ceb76967)"><path fill="#ff6709" d="M 18.503906 0.964844 L 30.171875 0.964844 L 30.171875 12.636719 L 18.503906 12.636719 Z M 18.503906 0.964844 " fill-opacity="1" fill-rule="nonzero"/></g><g clip-path="url(#0c5d4237a6)"><path fill="#ff6709" d="M 18.503906 24.371094 L 30.171875 24.371094 L 30.171875 36.039062 L 18.503906 36.039062 Z M 18.503906 24.371094 " fill-opacity="1" fill-rule="nonzero"/></g><g clip-path="url(#ef057cb5c4)"><path fill="#ff6709" d="M 6.835938 12.636719 L 18.503906 12.636719 L 18.503906 24.304688 L 6.835938 24.304688 Z M 6.835938 12.636719 " fill-opacity="1" fill-rule="nonzero"/></g></svg>